<svg width="1319" height="4668" viewBox="0 0 1319 4668" fill="none" xmlns="http://www.w3.org/2000/svg">
<path d="M0 431C0 192.965 192.965 0 431 0H888C1126.03 0 1319 192.965 1319 431V888C1319 1126.03 1126.03 1319 888 1319H431C192.965 1319 0 1126.03 0 888V431Z" fill="white"/>
<path d="M497 1319L822 1319V4668H497V1319Z" fill="white"/>
<path d="M511.053 866.99C480.513 866.872 454.234 859.355 432.217 844.441C410.319 829.526 393.451 807.923 381.614 779.632C369.895 751.342 364.095 717.31 364.213 677.537C364.213 637.883 370.072 604.088 381.791 576.152C393.628 548.217 410.496 526.969 432.395 512.409C454.412 497.731 480.631 490.392 511.053 490.392C541.474 490.392 567.634 497.731 589.533 512.409C611.55 527.087 628.477 548.394 640.314 576.33C652.151 604.147 658.01 637.883 657.892 677.537C657.892 717.428 651.973 751.519 640.136 779.81C628.418 808.101 611.609 829.703 589.71 844.618C567.812 859.533 541.592 866.99 511.053 866.99ZM511.053 803.247C531.886 803.247 548.517 792.772 560.946 771.82C573.375 750.868 579.53 719.441 579.412 677.537C579.412 649.957 576.571 626.993 570.889 608.645C565.326 590.298 557.395 576.507 547.097 567.274C536.917 558.041 524.902 553.425 511.053 553.425C490.338 553.425 473.766 563.782 461.337 584.497C448.908 605.212 442.634 636.226 442.516 677.537C442.516 705.473 445.297 728.792 450.861 747.495C456.543 766.079 464.533 780.047 474.831 789.398C485.129 798.631 497.203 803.247 511.053 803.247Z" fill="black"/>
<path d="M870.916 495.364V859H794.034V568.34H791.903L708.629 620.542V552.36L798.65 495.364H870.916Z" fill="black"/>
</svg>
