<svg width="43" height="43" viewBox="0 0 43 43" fill="none" xmlns="http://www.w3.org/2000/svg">
<path d="M23.7962 0H26.5525V5.60458H23.7962V0Z" fill="white"/>
<path d="M31.1464 0H33.9027V5.60458H31.1464V0Z" fill="white"/>
<path d="M16.446 0H19.2023V5.60458H16.446V0Z" fill="white"/>
<path d="M9.09573 0H11.852V5.60458H9.09573V0Z" fill="white"/>
<path d="M0 16.4463H5.60458V19.2026H0V16.4463Z" fill="white"/>
<path d="M0 9.09521H5.60458V11.8515H0V9.09521Z" fill="white"/>
<path d="M0 23.7964H5.60458V26.5527H0V23.7964Z" fill="white"/>
<path d="M0 31.146H5.60458V33.9023H0V31.146Z" fill="white"/>
<path d="M16.446 37.3955H19.2023V43.0001H16.446V37.3955Z" fill="white"/>
<path d="M9.09573 37.3955H11.852V43.0001H9.09573V37.3955Z" fill="white"/>
<path d="M23.7962 37.3955H26.5525V43.0001H23.7962V37.3955Z" fill="white"/>
<path d="M31.1464 37.3955H33.9027V43.0001H31.1464V37.3955Z" fill="white"/>
<path d="M37.3954 23.7964H43V26.5527H37.3954V23.7964Z" fill="white"/>
<path d="M37.3954 31.146H43V33.9023H37.3954V31.146Z" fill="white"/>
<path d="M37.3954 16.4463H43V19.2026H37.3954V16.4463Z" fill="white"/>
<path d="M37.3954 9.09521H43V11.8515H37.3954V9.09521Z" fill="white"/>
<path d="M12.7234 30.3412H30.2749V12.6572H12.7234V30.3412ZM26.9193 26.2612H24.9055V19.7977H26.9193V26.2612ZM25.9123 16.7373C26.5545 16.7373 27.0393 17.2249 27.0432 17.8727C27.0515 18.1758 26.9443 18.4579 26.7411 18.6681C26.527 18.8895 26.224 19.0114 25.8877 19.0114C25.2604 19.0114 24.7692 18.5146 24.7692 17.8805C24.7691 17.2394 25.2713 16.7373 25.9123 16.7373ZM18.5535 16.9803H20.5159L23.683 26.2612H21.5544L20.6615 23.6322H18.3615L17.4934 26.2612H15.4L18.5535 16.9803Z" fill="white"/>
<path d="M19.5138 20.0704C19.5118 20.0649 19.51 20.0592 19.5082 20.0537L18.8947 21.8663H20.125L19.5138 20.0704Z" fill="white"/>
<path d="M5.61584 5.5127V37.4859H37.3828V5.5127H5.61584ZM33.0472 31.7273C33.0472 32.4927 32.4266 33.1134 31.6611 33.1134H11.3373C10.5718 33.1134 9.95117 32.4927 9.95117 31.7273V11.2713C9.95117 10.5059 10.5718 9.88522 11.3373 9.88522H31.6611C32.4266 9.88522 33.0472 10.5059 33.0472 11.2713L33.0474 31.7273H33.0472Z" fill="white"/>
</svg>
