<svg width="40" height="39" viewBox="0 0 40 39" fill="none" xmlns="http://www.w3.org/2000/svg">
<path d="M20.5895 20.0317L29.2632 11.358H24.3369L22.9473 13.6738C22.6947 14.0949 22.2316 14.3475 21.7683 14.3475C21.2631 14.3475 20.8421 14.0949 20.5893 13.6738L18.2314 9.67383L17.6419 10.6844C17.3893 11.1054 16.9262 11.358 16.4629 11.358H10.7366L19.4103 20.0317C19.7051 20.3264 20.2524 20.3264 20.5893 20.0317H20.5895Z" fill="white"/>
<path d="M35.9158 7.23185C35.9158 6.47389 35.2842 5.84231 34.5263 5.84231H31.8315C31.7894 3.98978 30.8632 2.17915 29.0947 1.0002C26.6526 -0.599728 23.3684 -0.13657 21.3052 1.92659L20 3.23182L18.5684 1.8002C15.8736 -0.89457 11.2841 -0.557658 9.05256 2.76869C8.42098 3.69494 8.12632 4.74757 8.08407 5.8002H5.43137C4.6734 5.8002 4.04182 6.43178 4.04182 7.18974C4.04182 7.94771 4.6734 8.57929 5.43137 8.57929H15.6629L17.0525 6.2635C17.5577 5.42139 18.9472 5.42139 19.4104 6.2635L21.7682 10.2635L22.3577 9.25294C22.6103 8.83189 23.0734 8.57929 23.5367 8.57929H34.5262C35.3262 8.57915 35.9158 7.98978 35.9158 7.23185H35.9158Z" fill="white"/>
<path d="M31.5369 17.7998H29.7685C28.9264 17.7998 28.2528 18.4735 28.2528 19.3156V25.3787H11.7475V19.3156C11.7475 18.4735 11.0739 17.7998 10.2318 17.7998H8.4634C7.6213 17.7998 6.94765 18.4735 6.94765 19.3156V36.4945C6.94765 37.3366 7.6213 38.0103 8.4634 38.0103H10.2318C11.0739 38.0103 11.7475 37.3366 11.7475 36.4945V30.4313H28.2528V36.4945C28.2528 37.3366 28.9264 38.0103 29.7685 38.0103H31.5369C32.379 38.0103 33.0526 37.3366 33.0526 36.4945L33.0528 19.3156C33.0528 18.4735 32.3791 17.7998 31.537 17.7998H31.5369Z" fill="white"/>
<path d="M3.28425 21.211H1.51575C0.673649 21.211 0 21.8847 0 22.7268V33.0426C0 33.8847 0.673649 34.5583 1.51575 34.5583H3.28411C4.12621 34.5583 4.79986 33.8847 4.79986 33.0426L4.8 22.7689C4.8 21.9268 4.12635 21.2109 3.28424 21.2109L3.28425 21.211Z" fill="white"/>
<path d="M38.4842 21.211H36.7159C35.8738 21.211 35.2001 21.8847 35.2001 22.7268V33.0426C35.2001 33.8847 35.8738 34.5583 36.7159 34.5583H38.4842C39.3263 34.5583 40 33.8847 40 33.0426V22.7689C40 21.9268 39.3263 21.2109 38.4842 21.2109V21.211Z" fill="white"/>
</svg>
