<?xml version="1.0" encoding="UTF-8" standalone="no"?>
<!-- Created with Inkscape (http://www.inkscape.org/) -->

<svg
   version="1.1"
   id="svg2256"
   width="682.66669"
   height="682.66669"
   viewBox="0 0 682.66669 682.66669"
   xmlns="http://www.w3.org/2000/svg"
   xmlns:svg="http://www.w3.org/2000/svg">
  <defs
     id="defs2260">
    <clipPath
       clipPathUnits="userSpaceOnUse"
       id="clipPath2270">
      <path
         d="M 0,512 H 512 V 0 H 0 Z"
         id="path2268" />
    </clipPath>
  </defs>
  <g
     id="g2262"
     transform="matrix(1.3333333,0,0,-1.3333333,0,682.66667)">
    <g
       id="g2264">
      <g
         id="g2266"
         clip-path="url(#clipPath2270)">
        <g
           id="g2272"
           transform="translate(10,482.0005)">
          <path
             d="m 0,0 v -328 c 0,-11.046 8.954,-20 20,-20 h 374 c 11.046,0 20,8.954 20,20 V 0 c 0,11.046 -8.954,20 -20,20 H 20 C 8.954,20 0,11.046 0,0"
             style="fill:#ffffff;fill-opacity:1;fill-rule:nonzero;stroke:none"
             id="path2274" />
        </g>
        <g
           id="g2276"
           transform="translate(30,502.0006)">
          <path
             d="m 0,0 h 374 c 11.046,0 20,-8.954 20,-20 V -88 H -20 v 68 c 0,11.046 8.954,20 20,20"
             style="fill:#a0e557;fill-opacity:1;fill-rule:nonzero;stroke:none"
             id="path2278" />
        </g>
        <g
           id="g2280"
           transform="translate(62.5322,458.0002)">
          <path
             d="M 0,0 H -0.094"
             style="fill:none;stroke:#000000;stroke-width:20;stroke-linecap:round;stroke-linejoin:round;stroke-miterlimit:10;stroke-dasharray:none;stroke-opacity:1"
             id="path2282" />
        </g>
        <g
           id="g2284"
           transform="translate(108.0363,458.0002)">
          <path
             d="M 0,0 H -0.094"
             style="fill:none;stroke:#000000;stroke-width:20;stroke-linecap:round;stroke-linejoin:round;stroke-miterlimit:10;stroke-dasharray:none;stroke-opacity:1"
             id="path2286" />
        </g>
        <g
           id="g2288"
           transform="translate(153.5403,458.0002)">
          <path
             d="M 0,0 H -0.094"
             style="fill:none;stroke:#000000;stroke-width:20;stroke-linecap:round;stroke-linejoin:round;stroke-miterlimit:10;stroke-dasharray:none;stroke-opacity:1"
             id="path2290" />
        </g>
        <g
           id="g2292"
           transform="translate(371,458.001)">
          <path
             d="M 0,0 H -139.244"
             style="fill:none;stroke:#000000;stroke-width:20;stroke-linecap:round;stroke-linejoin:round;stroke-miterlimit:10;stroke-dasharray:none;stroke-opacity:1"
             id="path2294" />
        </g>
        <g
           id="g2296"
           transform="translate(14.3551,414.0006)">
          <path
             d="M 0,0 H 409.645"
             style="fill:none;stroke:#000000;stroke-width:20;stroke-linecap:round;stroke-linejoin:round;stroke-miterlimit:10;stroke-dasharray:none;stroke-opacity:1"
             id="path2298" />
        </g>
        <path
           d="m 58,366.001 h 248 v -152 H 58 Z"
           style="fill:#ff5d5d;fill-opacity:1;fill-rule:nonzero;stroke:none"
           id="path2300" />
        <g
           id="g2302"
           transform="translate(424,274.0003)">
          <path
             d="m 0,0 v 208 c 0,11.046 -8.954,20 -20,20 h -374 c -11.046,0 -20,-8.954 -20,-20 v -328 c 0,-11.045 8.954,-20 20,-20 h 272.333"
             style="fill:none;stroke:#000000;stroke-width:20;stroke-linecap:round;stroke-linejoin:round;stroke-miterlimit:10;stroke-dasharray:none;stroke-opacity:1"
             id="path2304" />
        </g>
        <g
           id="g2306"
           transform="translate(424,234.0006)">
          <path
             d="M 0,0 V 0"
             style="fill:none;stroke:#000000;stroke-width:20;stroke-linecap:round;stroke-linejoin:round;stroke-miterlimit:10;stroke-dasharray:none;stroke-opacity:1"
             id="path2308" />
        </g>
        <g
           id="g2310"
           transform="translate(214.651,326.0006)">
          <path
             d="M 0,0 H -12.451 V -72 H 0 c 19.882,0 36,16.118 36,36 v 0 C 36,-16.118 19.882,0 0,0 Z"
             style="fill:none;stroke:#000000;stroke-width:20;stroke-linecap:round;stroke-linejoin:round;stroke-miterlimit:10;stroke-dasharray:none;stroke-opacity:1"
             id="path2312" />
        </g>
        <g
           id="g2314"
           transform="translate(161.8004,254.0006)">
          <path
             d="M 0,0 -24.226,72 -48.451,0"
             style="fill:none;stroke:#000000;stroke-width:20;stroke-linecap:round;stroke-linejoin:round;stroke-miterlimit:10;stroke-dasharray:none;stroke-opacity:1"
             id="path2316" />
        </g>
        <g
           id="g2318"
           transform="translate(120.3308,263.0006)">
          <path
             d="M 0,0 H 34.394"
             style="fill:none;stroke:#000000;stroke-width:20;stroke-linecap:round;stroke-linejoin:round;stroke-miterlimit:10;stroke-dasharray:none;stroke-opacity:1"
             id="path2320" />
        </g>
        <g
           id="g2322"
           transform="translate(279.3328,214.0006)">
          <path
             d="m 0,0 h -221.333 v 152 h 248 V 16.333"
             style="fill:none;stroke:#000000;stroke-width:20;stroke-linecap:round;stroke-linejoin:round;stroke-miterlimit:10;stroke-dasharray:none;stroke-opacity:1"
             id="path2324" />
        </g>
        <g
           id="g2326"
           transform="translate(457.9885,183.8268)">
          <path
             d="m 0,0 -182.293,52.497 52.497,-182.293 31.034,31.034 75.065,-75.065 5.644,5.644 56.44,56.44 5.644,5.644 -75.065,75.065 z"
             style="fill:#72d8ff;fill-opacity:1;fill-rule:nonzero;stroke:none"
             id="path2328" />
        </g>
        <g
           id="g2330"
           transform="translate(457.9885,183.8268)">
          <path
             d="m 0,0 -182.293,52.497 52.497,-182.293 31.034,31.034 75.065,-75.065 5.644,5.644 56.44,56.44 5.644,5.644 -75.065,75.065 z"
             style="fill:none;stroke:#000000;stroke-width:20;stroke-linecap:round;stroke-linejoin:round;stroke-miterlimit:10;stroke-dasharray:none;stroke-opacity:1"
             id="path2332" />
        </g>
        <g
           id="g2334"
           transform="translate(59.4277,174.0006)">
          <path
             d="M 0,0 H 68.343"
             style="fill:none;stroke:#000000;stroke-width:20;stroke-linecap:round;stroke-linejoin:round;stroke-miterlimit:10;stroke-dasharray:none;stroke-opacity:1"
             id="path2336" />
        </g>
        <g
           id="g2338"
           transform="translate(167.2705,174.0006)">
          <path
             d="M 0,0 V 0"
             style="fill:none;stroke:#000000;stroke-width:20;stroke-linecap:round;stroke-linejoin:round;stroke-miterlimit:10;stroke-dasharray:none;stroke-opacity:1"
             id="path2340" />
        </g>
      </g>
    </g>
  </g>
</svg>
