<svg width="38" height="35" viewBox="0 0 38 35" fill="none" xmlns="http://www.w3.org/2000/svg">
<path d="M33.4474 0H4.48902C2.02313 0 0 2.05884 0 4.56789C0 6.49805 1.1381 8.10635 2.84526 8.81425V24.9631C2.84526 27.4724 4.80532 29.4669 7.27121 29.4669H16.2496L14.4792 32.6195C14.3527 32.8768 14.2895 33.1342 14.2895 33.3915C14.2895 33.9706 14.5424 34.4853 15.1115 34.807C15.3644 34.9357 15.6173 35 15.8702 35C16.4393 35 16.9451 34.7426 17.2612 34.1636L19.0316 31.011L20.802 34.1636C21.1181 34.6783 21.624 35 22.193 35C22.4459 35 22.7621 34.9357 22.9517 34.807C23.7105 34.3566 23.9634 33.3915 23.5208 32.6195L21.7504 29.4669H30.7288C33.1947 29.4669 35.1547 27.4724 35.1547 24.9631V8.81425C36.7987 8.10653 38 6.49805 38 4.56789C37.9368 2.05867 35.9135 0 33.4476 0H33.4474ZM4.48902 3.21694H33.3844C34.1431 3.21694 34.7121 3.86033 34.7121 4.56806C34.7121 5.27579 34.0799 5.91918 33.3844 5.91918H4.48902C3.73028 5.91918 3.16123 5.27579 3.16123 4.56806C3.16123 3.86033 3.79351 3.21694 4.48902 3.21694ZM31.9299 25.0276C31.9299 25.7354 31.3609 26.3144 30.6654 26.3144H7.27105C6.57554 26.3144 6.00649 25.7354 6.00649 25.0276V9.20029H31.993V25.0276H31.9299ZM11.5705 22.0037V17.5C11.5705 16.5993 12.2661 15.8915 13.1512 15.8915C14.0364 15.8915 14.7319 16.5993 14.7319 17.5V22.0037C14.7319 22.9045 14.0364 23.6122 13.1512 23.6122C12.2661 23.6122 11.5705 22.8401 11.5705 22.0037ZM17.3875 22.0037V14.9264C17.3875 14.0257 18.083 13.318 18.9682 13.318C19.8534 13.318 20.5489 14.0257 20.5489 14.9264V22.0037C20.5489 22.9045 19.8534 23.6122 18.9682 23.6122C18.083 23.6122 17.3875 22.8401 17.3875 22.0037ZM23.2045 21.8107V12.8678C23.2045 11.967 23.9 11.2593 24.7852 11.2593C25.6704 11.2593 26.3659 11.967 26.3659 12.8678V21.8107C26.3659 22.7114 25.6704 23.4192 24.7852 23.4192C23.9 23.4192 23.2045 22.7114 23.2045 21.8107Z" fill="white"/>
</svg>
