<svg width="43" height="45" viewBox="0 0 43 45" fill="none" xmlns="http://www.w3.org/2000/svg">
<path d="M37.6759 39.9057C40.133 37.2665 41.589 33.7174 41.589 29.8042C41.589 25.7545 39.951 22.0688 37.3118 19.4297C36.1743 28.9397 27.9839 36.311 18.0644 36.2655H13.2867C15.6983 41.3163 20.7945 44.7744 26.7553 44.7289L43 44.638L37.6759 39.9057Z" fill="white"/>
<path d="M18.6559 0.000203019C9.23695 -0.0452689 1.59258 7.55358 1.59258 16.9725C1.59258 21.4318 3.27609 25.4815 6.0973 28.5301L0 33.9904L18.5649 34.0359C27.9839 34.0813 35.6283 26.437 35.6283 17.0635C35.6736 7.64455 28.0749 0.000203019 18.6559 0.000203019ZM13.9237 22.2508H11.1026L11.1025 14.6519H13.9235L13.9237 22.2508ZM24.6622 22.2508H15.3343V14.6064L19.566 9.9652L21.3861 10.2837L20.1119 14.2423H26.4367L24.6622 22.2508Z" fill="white"/>
</svg>
