<svg id="Capa_1" enable-background="new 0 0 512 512" height="512" viewBox="0 0 512 512" width="512" xmlns="http://www.w3.org/2000/svg" xmlns:xlink="http://www.w3.org/1999/xlink"><linearGradient id="SVGID_1_" gradientUnits="userSpaceOnUse" x1="29.961" x2="481" y1="256.03" y2="256.03"><stop offset=".1095" stop-color="#87d0ff"/><stop offset=".9005" stop-color="#e388fb"/></linearGradient><path d="m195.98 512.06c-44.35 0-86.04-17.27-117.4-48.63-45.48-45.48-61.32-112.72-37.81-178.26.71-1.99 1.52-3.94 2.42-5.85 31.5-66.74 95.61-103.56 164.41-98.91 4.61.31 8.39 4.35 8.39 8.98v86.84c0 11.07-9.06 20.01-20.13 20-27.7-.03-50.24 22.29-50.24 49.73 0 27.42 22.52 49.73 50.19 49.73 5.37 0 10.69-.85 15.79-2.53 20.49-6.73 34.32-25.62 34.4-47.01v-326.15c0-11.05 9.04-20 20.19-20h75.78c11.06 0 20.03 8.94 20.04 19.98.06 54.35 44.4 98.57 98.87 98.61 11.07.01 20.12 8.93 20.12 20v76.15c0 11.05-9.04 20-20.09 20-29.02-.01-57.22-5.7-83.81-16.92-5.12-2.16-10.16-4.52-15.09-7.07v135.91c-.18 44.16-17.45 85.61-48.62 116.79-25.33 25.33-57.3 41.5-92.47 46.77-8.22 1.22-16.61 1.84-24.94 1.84zm-19.98-290.44c-27.65 4.39-53 17.85-72.51 38.91-21.13 22.8-33.06 52.8-33.45 83.89-.43 34.26 12.71 66.53 36.89 90.71 23.8 23.8 55.44 36.9 89.09 36.9 6.35 0 12.74-.48 18.99-1.41 26.64-3.99 50.88-16.26 70.1-35.49 23.66-23.65 36.76-55.11 36.89-88.56v-172.16c0-9.36 6.55-17.73 16.27-19.65 5.71-1.13 11.62.45 16.24 3.99 11.74 8.99 24.62 16.47 38.29 22.23 15.47 6.53 31.62 10.76 48.2 12.64v-36.46c-60.59-8.78-108.68-56.71-117.53-117.16h-37.47v306.22c-.14 38.68-24.92 72.77-61.65 84.91-9.15 3.02-18.67 4.56-28.3 4.56-49.6 0-89.95-40.25-89.95-89.73 0-42.6 29.92-78.37 69.9-87.48z" fill="url(#SVGID_1_)"/></svg>