<svg height="512pt" viewBox="0 0 512 512" width="512pt" xmlns="http://www.w3.org/2000/svg"><g fill="#463b85"><path d="m195.988281 511c-2.222656 0-4.476562-.496094-6.605469-1.542969-7.4375-3.65625-10.5-11.644531-6.84375-19.078125l30-61c3.65625-7.433594 12.644532-9.035156 20.082032-5.378906 7.433594 3.65625 10.496094 11.1875 6.839844 18.621094l-30 61c-2.609376 5.304687-7.933594 7.378906-13.472657 7.378906zm0 0"/><path d="m317.011719 511c-5.539063 0-10.863281-2.074219-13.472657-7.378906l-30-61c-3.65625-7.433594-.59375-14.964844 6.839844-18.621094 7.4375-3.65625 16.425782-2.054688 20.082032 5.378906l30 61c3.65625 7.433594.59375 15.421875-6.84375 19.078125-2.125 1.046875-4.382813 1.542969-6.605469 1.542969zm0 0"/><path d="m497 391h-482c-8.285156 0-13-6.714844-13-15s4.714844-15 13-15h482c8.285156 0 13 6.714844 13 15s-4.714844 15-13 15zm0 0"/></g><path d="m287 331h-212c-8.285156 0-15-6.714844-15-15s6.714844-15 15-15h212c8.285156 0 15 6.714844 15 15s-6.714844 15-15 15zm0 0" fill="#a8d3d8"/><path d="m287 331c-8.285156 0-15-6.714844-15-15v-30c0-8.285156 6.714844-15 15-15s15 6.714844 15 15v30c0 8.285156-6.714844 15-15 15zm0 0" fill="#463b85"/><path d="m467 451h-422c-24.8125 0-45-20.1875-45-45v-360c0-11.953125 4.597656-23.347656 12.945312-32.078125 8.582032-8.976563 19.964844-13.921875 32.054688-13.921875h422c12.089844 0 23.472656 4.945312 32.054688 13.921875 8.347656 8.730469 12.945312 20.125 12.945312 32.078125v360c0 24.8125-20.1875 45-45 45zm-422-421c-7.992188 0-15 7.476562-15 16v360c0 8.269531 6.730469 15 15 15h422c8.269531 0 15-6.730469 15-15v-360c0-8.523438-7.007812-16-15-16zm0 0" fill="#deecf1"/><path d="m377 512h-241c-8.285156 0-15-6.714844-15-15s6.714844-15 15-15h241c8.285156 0 15 6.714844 15 15s-6.714844 15-15 15zm0 0" fill="#54469d"/><path d="m287 301c-3.4375 0-6.804688-1.183594-9.511719-3.398438-3.472656-2.851562-5.488281-7.109374-5.488281-11.601562v-27.03125c0-46.476562 16.226562-91.863281 45.691406-127.808594 29.464844-35.941406 70.792969-60.753906 116.367188-69.871094 4.410156-.878906 8.976562.261719 12.453125 3.109376 3.472656 2.851562 5.488281 7.109374 5.488281 11.601562v27.03125c0 35.234375-9.265625 69.972656-26.800781 100.449219-2.675781 4.652343-7.632813 7.519531-13 7.519531h-14.386719l4.433594 13.308594c1.722656 5.164062.511718 10.855468-3.164063 14.871094-29.105469 31.792968-66.847656 53.070312-109.140625 61.53125-.976562.191406-1.960937.289062-2.941406.289062zm135-205.679688c-70.523438 22.261719-120 88.371094-120 163.648438v7.734375c25.984375-8.144531 49.449219-22.257813 68.917969-41.511719l-8.148438-24.449218c-1.523437-4.570313-.757812-9.601563 2.0625-13.511719 2.816407-3.914063 7.347657-6.230469 12.167969-6.230469h26.273438c12.273437-24.058594 18.726562-50.835938 18.726562-77.96875zm0 0" fill="#54469d"/></svg>