<svg width="43" height="38" viewBox="0 0 43 38" fill="none" xmlns="http://www.w3.org/2000/svg">
<path d="M16.3582 22.322H15.4015C14.3014 22.322 13.4404 23.1824 13.4404 24.2818V36.0402C13.4404 37.1396 14.3014 38 15.4015 38H16.3582C17.4583 38 18.3193 37.1396 18.3193 36.0402V24.2818C18.2714 23.2303 17.4104 22.3222 16.3582 22.3222V22.322ZM5.40502 26.2414H4.44835C3.34819 26.2414 2.48723 27.1017 2.48723 28.2011V36.0402C2.48723 37.1396 3.34819 38 4.44835 38H5.40502C6.50518 38 7.36613 37.1396 7.36613 36.0402L7.36599 28.2011C7.36599 27.1017 6.45725 26.2414 5.40502 26.2414ZM38.2649 16.4428H37.3082C36.208 16.4428 35.3471 17.3032 35.3471 18.4026V36.0402C35.3471 37.1396 36.208 38 37.3082 38H38.2649C39.365 38 40.226 37.1396 40.226 36.0402L40.2259 18.4026C40.2259 17.3511 39.3649 16.4429 38.2649 16.4429V16.4428ZM27.3114 30.1607H26.3069C25.2067 30.1607 24.3458 31.0211 24.3458 32.1205V36.0399C24.3458 37.1393 25.2067 37.9996 26.3069 37.9996H27.2636C28.3637 37.9996 29.2247 37.1393 29.2247 36.0399V32.1205C29.2247 31.069 28.3637 30.1607 27.3114 30.1607ZM42.7609 0.286791C42.5696 0.0956448 42.3304 0 42.0434 0H30.4682C29.942 0 29.5115 0.430186 29.5115 0.956017V2.38997C29.5115 2.9158 29.942 3.34599 30.4682 3.34599H35.7297C33.1468 6.83523 26.4504 15.678 25.6375 15.678C24.6331 15.678 15.1148 8.22143 14.2058 8.22143C13.2971 8.22129 0 21.9874 0 21.9874C0 21.9874 12.8666 14.1483 13.7753 14.1483C14.684 14.1483 25.207 22.3219 26.1634 22.3219C26.9287 22.3219 35.9686 10.7545 39.6517 6.02246V12.5229C39.6517 13.0488 40.0822 13.479 40.6084 13.479H42.0433C42.5695 13.479 43 13.0488 43 12.5229V2.48526V2.38961V0.955659C43 0.716898 42.9043 0.477865 42.7608 0.286719L42.7609 0.286791Z" fill="white"/>
</svg>
