<svg width="54" height="33" viewBox="0 0 54 33" fill="none" xmlns="http://www.w3.org/2000/svg">
<path fill-rule="evenodd" clip-rule="evenodd" d="M54 4.40391H45.438V27.6566H54V4.40391ZM0 4.40391H8.562V27.6566H0V4.40391ZM25.842 28.9277L23.3221 26.3916L19.2602 30.4639L21.7862 33L25.8422 28.9277H25.842ZM43.122 4.40391V18.3736L31.716 6.72918L23.208 9.20506L20.6461 6.45815L30.1981 0.000402913L43.122 4.40391ZM43.614 19.976L40.4941 23.1084L36.654 19.253L36.0841 19.8193L40.746 24.4999L37.6261 27.6322L32.9642 22.9517L32.3943 23.5239L36.2404 27.3793L33.1144 30.5178L28.7224 26.1021L28.1464 26.6743L31.3204 29.861L28.1944 32.9934L25.5604 30.3489L26.9764 28.9272L23.8624 25.7948L25.0085 24.6441L21.3485 20.9756L20.5085 21.819L17.4425 18.7407L16.6085 19.5781L13.5124 16.4757L10.8784 19.1202V4.40351L22.5484 0L26.2503 1.74702L19.4763 6.32522L22.9744 10.0783L31.4884 7.59634L43.6144 19.9757L43.614 19.976ZM16.038 20.1507L13.512 17.6146L10.536 20.6025L13.062 23.1386L16.038 20.1507ZM19.92 22.4097L17.4181 19.8978L12.2161 25.1266L14.718 27.6327L19.92 22.4099V22.4097ZM15.528 28L18.03 30.512L23.874 24.6446L21.348 22.1085L15.528 28Z" fill="white"/>
</svg>
