<svg id="Layer_5" enable-background="new 0 0 62 62" height="512" viewBox="0 0 62 62" width="512" xmlns="http://www.w3.org/2000/svg" xmlns:xlink="http://www.w3.org/1999/xlink"><linearGradient id="SVGID_1_" gradientUnits="userSpaceOnUse" x1="31" x2="31" y1="62" y2="0"><stop offset="0" stop-color="#9f2fff"/><stop offset="1" stop-color="#0bb1d3"/></linearGradient><path d="m41.474 40.149c-.294.183-.474.504-.474.851v14c0 .347.18.668.474.851.161.099.343.149.526.149.153 0 .306-.035.447-.105l14-7c.339-.17.553-.516.553-.895s-.214-.725-.553-.895l-14-7c-.309-.154-.678-.139-.973.044zm1.526 2.469 10.764 5.382-10.764 5.382zm16-38.618h-7v-1c0-1.654-1.346-3-3-3h-42c-1.654 0-3 1.346-3 3v33h-1c-1.654 0-3 1.346-3 3v20c0 1.654 1.346 3 3 3h24c1.654 0 3-1.346 3-3v-11h4c0 7.72 6.28 14 14 14s14-6.28 14-14c0-6.329-4.225-11.684-10-13.41v-6.59h7c1.654 0 3-1.346 3-3v-18c0-1.654-1.346-3-3-3zm-52-2h42c.551 0 1 .448 1 1v1h-15c-1.654 0-3 1.346-3 3v1h-26v-5c0-.552.449-1 1-1zm-1 8h10v26h-10zm22 49c0 .552-.449 1-1 1h-24c-.551 0-1-.448-1-1v-20c0-.552.449-1 1-1h24c.551 0 1 .448 1 1zm32-11c0 6.617-5.383 12-12 12s-12-5.383-12-12 5.383-12 12-12 12 5.383 12 12zm-12-14c-7.039 0-12.865 5.227-13.84 12h-4.16v-7c0-1.654-1.346-3-3-3h-9v-26h14v15c0 1.654 1.346 3 3 3h7.5l2.1 2.801c.563.751 1.461 1.199 2.4 1.199.94 0 1.837-.448 2.399-1.199l.601-.801v4.16c-.655-.095-1.319-.16-2-.16zm12-9c0 .552-.449 1-1 1h-8.5l-2.701 3.601c-.375.5-1.224.5-1.599 0l-2.7-3.601h-8.5c-.551 0-1-.448-1-1v-18c0-.552.449-1 1-1h24c.551 0 1 .448 1 1zm-2-13c0-2.206-1.794-4-4-4s-4 1.794-4 4c0 .319.047.626.118.923l-3.674 1.945-8.976-4.752c-.488-.26-1.093-.071-1.352.416-.258.488-.072 1.093.416 1.352l7.775 4.116-7.775 4.116c-.488.259-.674.863-.416 1.352.18.339.526.532.885.532.158 0 .318-.037.467-.116l8.976-4.752 3.674 1.945c-.071.297-.118.604-.118.923 0 2.206 1.794 4 4 4s4-1.794 4-4-1.794-4-4-4c-1.167 0-2.21.511-2.942 1.311l-2.477-1.311 2.477-1.311c.732.8 1.775 1.311 2.942 1.311 2.206 0 4-1.794 4-4zm-4 6c1.103 0 2 .897 2 2s-.897 2-2 2-2-.897-2-2 .897-2 2-2zm0-4c-1.103 0-2-.897-2-2s.897-2 2-2 2 .897 2 2-.897 2-2 2zm-36-8h-2v-2h2zm-4 0h-2v-2h2zm-4 0h-2v-2h2zm-2 44.184v-10.184h-2v10.184c-1.161.414-2 1.514-2 2.816s.839 2.402 2 2.816v2.184h2v-2.184c1.161-.414 2-1.514 2-2.816s-.839-2.402-2-2.816zm-1 3.816c-.551 0-1-.448-1-1s.449-1 1-1 1 .448 1 1-.449 1-1 1zm9-7.816v-6.184h-2v6.184c-1.161.414-2 1.514-2 2.816s.839 2.402 2 2.816v6.184h2v-6.184c1.161-.414 2-1.514 2-2.816s-.839-2.402-2-2.816zm-1 3.816c-.551 0-1-.448-1-1s.449-1 1-1 1 .448 1 1-.449 1-1 1zm9-5.816v-4.184h-2v4.184c-1.161.414-2 1.514-2 2.816s.839 2.402 2 2.816v8.184h2v-8.184c1.161-.414 2-1.514 2-2.816s-.839-2.402-2-2.816zm-1 3.816c-.551 0-1-.448-1-1s.449-1 1-1 1 .448 1 1-.449 1-1 1zm-9-36v2h-6v-2zm-6 4h6v2h-6zm0 4h6v2h-6zm0 4h6v2h-6zm0 4h6v2h-6zm0 4h6v2h-6zm12-10h10v-10h-10zm2-8h6v6h-6zm-2 20h10v-10h-10zm2-8h6v6h-6z" fill="url(#SVGID_1_)"/></svg>