<svg width="5172" height="2148" viewBox="0 0 5172 2148" fill="none" xmlns="http://www.w3.org/2000/svg">
<g opacity="0.7" filter="url(#filter0_f_10_61)">
<g clip-path="url(#clip0_10_61)">
<path d="M313.352 218H341.569V155.527L397.125 59.5657H366.163L328.394 127.529H326.527L288.758 59.5657H257.795L313.352 155.527V218ZM465.613 220.415C501.516 220.415 523.365 196.919 523.365 158.052V157.832C523.365 119.184 501.406 95.6883 465.613 95.6883C429.93 95.6883 407.861 119.294 407.861 157.832V158.052C407.861 196.919 429.6 220.415 465.613 220.415ZM465.613 198.237C446.618 198.237 435.749 183.415 435.749 158.162V157.942C435.749 132.689 446.618 117.757 465.613 117.757C484.498 117.757 495.367 132.689 495.367 157.942V158.162C495.367 183.415 484.608 198.237 465.613 198.237ZM603.052 220.415C620.399 220.415 632.587 212.62 638.186 199.774H640.053V218H667.392V97.994H640.053V167.933C640.053 185.94 630.61 197.359 612.933 197.359C596.464 197.359 589.547 187.916 589.547 169.361V97.994H562.208V175.619C562.208 204.166 576.042 220.415 603.052 220.415ZM713.262 218H740.601V148.28C740.601 131.152 752.568 120.282 770.794 120.282C775.515 120.282 780.017 120.941 784.409 121.82V97.3352C781.774 96.5667 777.492 96.0177 773.32 96.0177C757.509 96.0177 746.53 103.594 742.467 116.44H740.601V97.994H713.262V218ZM882.846 218H912.491L925.666 177.046H984.297L997.582 218H1027.23L971.011 59.5657H939.061L882.846 218ZM954.103 88.9908H955.969L977.27 155.197H932.803L954.103 88.9908ZM1109 220.415C1139.41 220.415 1157.09 204.056 1161.04 179.462L1161.26 178.584L1135.46 178.693L1135.24 179.133C1131.84 191.759 1123.16 198.237 1109 198.237C1090.44 198.237 1079.35 183.305 1079.35 157.832V157.613C1079.35 132.47 1090.33 117.757 1109 117.757C1123.93 117.757 1132.83 126.102 1135.35 137.74L1135.46 138.069H1161.26V137.63C1158.19 112.816 1139.74 95.6883 1108.89 95.6883C1072.77 95.6883 1051.58 118.855 1051.58 157.613V157.832C1051.58 197.029 1072.88 220.415 1109 220.415ZM1248.52 218.549C1253.79 218.549 1258.85 218.11 1262.8 217.341V196.261C1259.5 196.59 1257.42 196.7 1253.57 196.7C1242.16 196.7 1237.44 191.649 1237.44 179.682V119.184H1262.8V97.994H1237.44V68.5689H1209.66V97.994H1190.99V119.184H1209.66V186.159C1209.66 209.326 1220.97 218.549 1248.52 218.549ZM1316.57 77.9015C1325.47 77.9015 1332.82 70.7648 1332.82 61.7616C1332.82 52.8682 1325.47 45.6218 1316.57 45.6218C1307.57 45.6218 1300.21 52.8682 1300.21 61.7616C1300.21 70.7648 1307.57 77.9015 1316.57 77.9015ZM1302.85 218H1330.19V97.994H1302.85V218ZM1408.56 218H1438.53L1481.02 97.994H1452.26L1424.7 191.32H1422.83L1395.05 97.994H1365.85L1408.56 218ZM1530.62 77.9015C1539.52 77.9015 1546.87 70.7648 1546.87 61.7616C1546.87 52.8682 1539.52 45.6218 1530.62 45.6218C1521.62 45.6218 1514.26 52.8682 1514.26 61.7616C1514.26 70.7648 1521.62 77.9015 1530.62 77.9015ZM1516.9 218H1544.24V97.994H1516.9V218ZM1637.54 218.549C1642.81 218.549 1647.86 218.11 1651.81 217.341V196.261C1648.52 196.59 1646.43 196.7 1642.59 196.7C1631.17 196.7 1626.45 191.649 1626.45 179.682V119.184H1651.81V97.994H1626.45V68.5689H1598.67V97.994H1580.01V119.184H1598.67V186.159C1598.67 209.326 1609.98 218.549 1637.54 218.549ZM1704.38 260.161C1730.95 260.161 1744.68 250.609 1755 220.525L1798.04 97.994H1769.27L1741.38 191.759H1739.3L1711.3 97.994H1681.43L1724.36 218.11L1722.94 223.6C1719.97 234.469 1713.27 239.081 1702.08 239.081C1699.22 239.081 1696.15 238.971 1693.95 238.751V259.722C1697.24 260.052 1701.09 260.161 1704.38 260.161Z" fill="white"/>
<g clip-path="url(#clip1_10_61)">
<path d="M4219.75 226.097H4235.26L4257.88 147.118H4258.91L4281.6 226.097H4297.04L4325.59 120.474H4308.53L4289.21 202.601H4288.19L4266.01 120.474H4250.78L4228.75 202.601H4227.73L4208.33 120.474H4191.27L4219.75 226.097ZM4381.56 227.634C4401.91 227.634 4412.89 215.922 4415.52 205.455L4415.67 204.796L4400.37 204.87L4400.08 205.455C4398.18 209.554 4392.1 214.605 4381.93 214.605C4368.82 214.605 4360.48 205.748 4360.19 190.523H4416.55V184.96C4416.55 161.098 4402.93 145.068 4380.75 145.068C4358.58 145.068 4344.23 161.684 4344.23 186.497V186.571C4344.23 211.75 4358.28 227.634 4381.56 227.634ZM4380.83 158.097C4391.59 158.097 4399.57 164.977 4400.81 179.178H4360.41C4361.8 165.49 4369.99 158.097 4380.83 158.097ZM4481.3 227.634C4501.65 227.634 4512.63 215.922 4515.27 205.455L4515.41 204.796L4500.11 204.87L4499.82 205.455C4497.92 209.554 4491.84 214.605 4481.67 214.605C4468.57 214.605 4460.22 205.748 4459.93 190.523H4516.29V184.96C4516.29 161.098 4502.68 145.068 4480.5 145.068C4458.32 145.068 4443.97 161.684 4443.97 186.497V186.571C4443.97 211.75 4458.03 227.634 4481.3 227.634ZM4480.57 158.097C4491.33 158.097 4499.31 164.977 4500.55 179.178H4460.15C4461.54 165.49 4469.74 158.097 4480.57 158.097ZM4548.4 226.097H4564.28V197.184L4571.09 190.377L4598.47 226.097H4617.79L4582.44 180.129L4615.59 146.605H4597L4565.45 180.129H4564.28V115.423H4548.4V226.097ZM4645.51 226.097H4661.39V115.423H4645.51V226.097ZM4705.28 254.058C4721.39 254.058 4729.44 248.129 4736.17 229.171L4765.74 146.605H4749.06L4729.22 210.14H4727.83L4707.92 146.605H4690.79L4719.63 226.17L4718.46 230.269C4716.12 238.321 4711.65 241.468 4704.26 241.468C4702.43 241.468 4700.45 241.395 4698.92 241.175V253.692C4700.97 253.911 4703.31 254.058 4705.28 254.058Z" fill="white"/>
<path d="M4848.52 192.106C4852.38 189.222 4858.45 189.001 4862.65 191.441L4863.66 192.106L4920.34 234.443L4977.01 192.106C4980.87 189.222 4986.94 189.001 4991.14 191.441L4992.15 192.106C4996.01 194.99 4996.31 199.528 4993.04 202.666L4992.15 203.42L4927.91 251.42C4924.05 254.304 4917.97 254.526 4913.77 252.086L4912.76 251.42L4848.52 203.42C4844.34 200.296 4844.34 195.231 4848.52 192.106Z" fill="#AFAFAF"/>
</g>
</g>
<path fill-rule="evenodd" clip-rule="evenodd" d="M101 1701.57C101 1701.57 346.196 1378.85 388.41 1370.74C616.213 1326.94 887.801 1057.08 1015.12 1057.08C1142.44 1057.08 1554.02 1281.65 1734.98 1281.65C1915.94 1281.65 2261.9 647.729 2400.28 647.729C2538.66 647.729 2801.37 1108.19 2929.3 1108.19C3057.22 1108.19 3588.26 344 3716 344C3843.74 344 4039.58 1057.08 4167.32 1057.08C4296 742.5 4419.5 1409.5 4419.5 1409.5L5072 1701.57H101Z" fill="url(#paint0_linear_10_61)"/>
<path d="M101 1098.08C101 1098.08 297.95 1360.93 409.699 1360.93C521.449 1360.93 887.801 1046.91 1015.12 1046.91C1142.44 1046.91 1554.02 1271.74 1734.98 1271.74C1915.94 1271.74 2261.9 637.085 2400.28 637.085C2538.66 637.085 2801.37 1098.08 2929.3 1098.08C3057.22 1098.08 3454.11 916.07 3581.85 916.07C3709.59 916.07 4039.58 1046.91 4167.32 1046.91C4295.05 1046.91 4507.95 960.023 4507.95 960.023" stroke="#4050E7" stroke-width="2"/>
<rect opacity="0.296012" x="2315.12" y="557.727" width="170.317" height="1149.64" rx="8" fill="#3378FF"/>
<circle cx="2400.28" cy="642.885" r="83.1585" fill="#4050E7" stroke="white" stroke-width="4"/>
<g clip-path="url(#clip2_10_61)">
<path d="M261.13 1977.97H275.662V1913.98H276.723L301.671 1977.97H312.649L337.598 1913.98H338.72V1977.97H353.191V1887.97H334.728L307.721 1957.2H306.661L279.592 1887.97H261.13V1977.97ZM413.858 1979.34C434.253 1979.34 446.665 1966 446.665 1943.92V1943.79C446.665 1921.84 434.191 1908.49 413.858 1908.49C393.587 1908.49 381.05 1921.9 381.05 1943.79V1943.92C381.05 1966 393.4 1979.34 413.858 1979.34ZM413.858 1966.75C403.067 1966.75 396.892 1958.33 396.892 1943.98V1943.86C396.892 1929.51 403.067 1921.03 413.858 1921.03C424.586 1921.03 430.76 1929.51 430.76 1943.86V1943.98C430.76 1958.33 424.648 1966.75 413.858 1966.75ZM472.903 1977.97H488.434V1938.24C488.434 1928.01 494.172 1921.53 503.403 1921.53C512.821 1921.53 517.125 1926.89 517.125 1937.49V1977.97H532.655V1933.88C532.655 1917.66 524.36 1908.49 509.141 1908.49C499.286 1908.49 492.737 1912.92 489.494 1920.22H488.434V1909.8H472.903V1977.97Z" fill="white"/>
<path d="M972.752 1977.97H988.844V1901.5H1016.6V1887.97H945.058V1901.5H972.752V1977.97ZM1057.43 1979.34C1067.29 1979.34 1074.21 1974.92 1077.39 1967.62H1078.45V1977.97H1093.98V1909.8H1078.45V1949.53C1078.45 1959.76 1073.09 1966.25 1063.05 1966.25C1053.69 1966.25 1049.76 1960.88 1049.76 1950.34V1909.8H1034.23V1953.9C1034.23 1970.11 1042.09 1979.34 1057.43 1979.34ZM1152.78 1979.34C1171.3 1979.34 1180.41 1968.68 1182.59 1959.88L1182.78 1959.32H1168L1167.81 1959.76C1166.31 1962.88 1161.51 1967.12 1153.09 1967.12C1142.55 1967.12 1135.94 1960.01 1135.75 1947.78H1183.4V1942.67C1183.4 1922.09 1171.43 1908.49 1152.03 1908.49C1132.63 1908.49 1120.22 1922.52 1120.22 1943.98V1944.04C1120.22 1965.75 1132.51 1979.34 1152.78 1979.34ZM1152.22 1920.65C1160.89 1920.65 1167.19 1926.2 1168.25 1937.37H1135.87C1137.06 1926.52 1143.55 1920.65 1152.22 1920.65Z" fill="white"/>
<path d="M1610.3 1977.97H1625.45L1643.67 1913.54H1644.6L1662.94 1977.97H1678.03L1702.17 1887.97H1685.52L1670.11 1955.52H1669.24L1651.28 1887.97H1636.99L1619.28 1955.52H1618.34L1602.94 1887.97H1586.16L1610.3 1977.97ZM1749.86 1979.34C1768.39 1979.34 1777.5 1968.68 1779.68 1959.88L1779.87 1959.32H1765.08L1764.9 1959.76C1763.4 1962.88 1758.6 1967.12 1750.18 1967.12C1739.64 1967.12 1733.02 1960.01 1732.84 1947.78H1780.49V1942.67C1780.49 1922.09 1768.51 1908.49 1749.12 1908.49C1729.72 1908.49 1717.31 1922.52 1717.31 1943.98V1944.04C1717.31 1965.75 1729.59 1979.34 1749.86 1979.34ZM1749.3 1920.65C1757.97 1920.65 1764.27 1926.2 1765.33 1937.37H1732.96C1734.15 1926.52 1740.63 1920.65 1749.3 1920.65ZM1831.24 1979.1C1840.84 1979.1 1848.2 1974.73 1851.95 1967.31H1853.01V1977.97H1868.6V1883.42H1853.01V1920.65H1851.95C1848.39 1913.29 1840.59 1908.68 1831.24 1908.68C1813.96 1908.68 1803.3 1922.15 1803.3 1943.86V1943.98C1803.3 1965.56 1814.15 1979.1 1831.24 1979.1ZM1836.1 1966C1825.5 1966 1819.08 1957.7 1819.08 1943.98V1943.86C1819.08 1930.13 1825.56 1921.78 1836.1 1921.78C1846.64 1921.78 1853.26 1930.2 1853.26 1943.86V1943.98C1853.26 1957.64 1846.71 1966 1836.1 1966Z" fill="white"/>
<path d="M2308.51 1977.97H2324.6V1901.5H2352.36V1887.97H2280.82V1901.5H2308.51V1977.97ZM2378.84 1977.97H2394.37V1938.24C2394.37 1928.01 2400.11 1921.53 2409.34 1921.53C2418.76 1921.53 2423.07 1926.89 2423.07 1937.49V1977.97H2438.6V1933.88C2438.6 1917.66 2430.3 1908.49 2415.08 1908.49C2405.23 1908.49 2398.68 1912.92 2395.43 1920.22H2394.37V1883.42H2378.84V1977.97ZM2490.16 1979.34C2500.01 1979.34 2506.93 1974.92 2510.12 1967.62H2511.18V1977.97H2526.71V1909.8H2511.18V1949.53C2511.18 1959.76 2505.81 1966.25 2495.77 1966.25C2486.41 1966.25 2482.48 1960.88 2482.48 1950.34V1909.8H2466.95V1953.9C2466.95 1970.11 2474.81 1979.34 2490.16 1979.34Z" fill="#4050E7"/>
<path d="M2909.94 1977.97H2926.03V1941.24H2963.77V1928.14H2926.03V1901.5H2967.32V1887.97H2909.94V1977.97ZM2994.18 1977.97H3009.71V1938.37C3009.71 1928.64 3016.51 1922.46 3026.87 1922.46C3029.55 1922.46 3032.11 1922.84 3034.6 1923.33V1909.43C3033.1 1908.99 3030.67 1908.68 3028.3 1908.68C3019.32 1908.68 3013.08 1912.98 3010.77 1920.28H3009.71V1909.8H2994.18V1977.97ZM3065.95 1898.39C3071.01 1898.39 3075.18 1894.33 3075.18 1889.22C3075.18 1884.17 3071.01 1880.05 3065.95 1880.05C3060.84 1880.05 3056.66 1884.17 3056.66 1889.22C3056.66 1894.33 3060.84 1898.39 3065.95 1898.39ZM3058.16 1977.97H3073.69V1909.8H3058.16V1977.97Z" fill="white"/>
<path d="M3504.32 1980.22C3525.9 1980.22 3539.44 1969.24 3539.44 1951.71V1951.65C3539.44 1938.05 3531.52 1930.45 3512.56 1926.45L3502.89 1924.4C3491.66 1922.03 3487.11 1918.03 3487.11 1911.67V1911.61C3487.11 1903.94 3494.22 1899.26 3504.2 1899.26C3514.49 1899.2 3521.16 1904.19 3522.29 1911.17L3522.41 1911.92H3537.82L3537.76 1911.11C3536.63 1896.64 3524.22 1885.72 3504.26 1885.72C3484.8 1885.72 3470.96 1896.58 3470.96 1912.67V1912.73C3470.96 1926.14 3478.94 1934.75 3497.34 1938.62L3507.01 1940.61C3518.61 1943.11 3523.29 1947.04 3523.29 1953.52V1953.59C3523.29 1961.32 3515.68 1966.68 3504.82 1966.68C3493.41 1966.68 3485.36 1961.69 3484.61 1954.15L3484.55 1953.52H3468.96L3469.02 1954.4C3470.14 1969.93 3483.43 1980.22 3504.32 1980.22ZM3584.51 1979.1C3593.5 1979.1 3600.73 1975.23 3604.47 1968.62H3605.53V1977.97H3620.88V1931.38C3620.88 1916.97 3611.02 1908.49 3593.5 1908.49C3577.28 1908.49 3566.3 1916.1 3564.8 1927.58L3564.74 1928.14H3579.4L3579.46 1927.89C3581.02 1923.4 3585.64 1920.84 3592.75 1920.84C3601.1 1920.84 3605.53 1924.58 3605.53 1931.38V1937.24L3588.01 1938.3C3571.42 1939.3 3562.12 1946.41 3562.12 1958.57V1958.7C3562.12 1971.11 3571.54 1979.1 3584.51 1979.1ZM3577.47 1957.95V1957.83C3577.47 1952.21 3581.52 1949.03 3590.19 1948.47L3605.53 1947.47V1952.96C3605.53 1961.07 3598.61 1967.18 3589.25 1967.18C3582.39 1967.18 3577.47 1963.75 3577.47 1957.95ZM3676.99 1978.28C3679.98 1978.28 3682.85 1978.04 3685.1 1977.6V1965.62C3683.23 1965.81 3682.04 1965.87 3679.86 1965.87C3673.37 1965.87 3670.69 1963 3670.69 1956.2V1921.84H3685.1V1909.8H3670.69V1893.08H3654.91V1909.8H3644.31V1921.84H3654.91V1959.88C3654.91 1973.05 3661.33 1978.28 3676.99 1978.28Z" fill="white"/>
<path d="M4139.35 1980.22C4160.93 1980.22 4174.47 1969.24 4174.47 1951.71V1951.65C4174.47 1938.05 4166.55 1930.45 4147.59 1926.45L4137.92 1924.4C4126.69 1922.03 4122.14 1918.03 4122.14 1911.67V1911.61C4122.14 1903.94 4129.25 1899.26 4139.23 1899.26C4149.52 1899.2 4156.19 1904.19 4157.32 1911.17L4157.44 1911.92H4172.85L4172.78 1911.11C4171.66 1896.64 4159.25 1885.72 4139.29 1885.72C4119.83 1885.72 4105.98 1896.58 4105.98 1912.67V1912.73C4105.98 1926.14 4113.97 1934.75 4132.37 1938.62L4142.04 1940.61C4153.64 1943.11 4158.31 1947.04 4158.31 1953.52V1953.59C4158.31 1961.32 4150.71 1966.68 4139.85 1966.68C4128.44 1966.68 4120.39 1961.69 4119.64 1954.15L4119.58 1953.52H4103.99L4104.05 1954.4C4105.17 1969.93 4118.46 1980.22 4139.35 1980.22ZM4224.16 1979.34C4234.01 1979.34 4240.94 1974.92 4244.12 1967.62H4245.18V1977.97H4260.71V1909.8H4245.18V1949.53C4245.18 1959.76 4239.81 1966.25 4229.77 1966.25C4220.42 1966.25 4216.49 1960.88 4216.49 1950.34V1909.8H4200.96V1953.9C4200.96 1970.11 4208.81 1979.34 4224.16 1979.34ZM4290.31 1977.97H4305.84V1938.24C4305.84 1928.01 4311.58 1921.53 4320.81 1921.53C4330.23 1921.53 4334.54 1926.89 4334.54 1937.49V1977.97H4350.07V1933.88C4350.07 1917.66 4341.77 1908.49 4326.55 1908.49C4316.7 1908.49 4310.15 1912.92 4306.91 1920.22H4305.84V1909.8H4290.31V1977.97Z" fill="white"/>
</g>
</g>
<defs>
<filter id="filter0_f_10_61" x="0.202026" y="0" width="5171.8" height="2148" filterUnits="userSpaceOnUse" color-interpolation-filters="sRGB">
<feFlood flood-opacity="0" result="BackgroundImageFix"/>
<feBlend mode="normal" in="SourceGraphic" in2="BackgroundImageFix" result="shape"/>
<feGaussianBlur stdDeviation="50" result="effect1_foregroundBlur_10_61"/>
</filter>
<linearGradient id="paint0_linear_10_61" x1="101.001" y1="647.729" x2="101.001" y2="1701.57" gradientUnits="userSpaceOnUse">
<stop stop-color="#4050E7"/>
<stop offset="1" stop-color="white" stop-opacity="0.01"/>
</linearGradient>
<clipPath id="clip0_10_61">
<rect width="4822" height="224" fill="white" transform="translate(250 100)"/>
</clipPath>
<clipPath id="clip1_10_61">
<rect width="824.487" height="149.333" fill="white" transform="translate(4170.8 147.097)"/>
</clipPath>
<clipPath id="clip2_10_61">
<rect width="4108.9" height="149.027" fill="white" transform="translate(250.027 1898.97)"/>
</clipPath>
</defs>
</svg>
