<svg width="1054" height="548" viewBox="0 0 1054 548" fill="none" xmlns="http://www.w3.org/2000/svg">
<g clip-path="url(#clip0_1_2766)">
<line x1="0.131718" y1="131.745" x2="0.131706" y2="416.256" stroke="#666666" stroke-width="0.263436"/>
<line x1="42.2816" y1="5.75758e-09" x2="42.2816" y2="548" stroke="#666666" stroke-width="0.263436"/>
<line x1="84.4313" y1="5.75758e-09" x2="84.4313" y2="548" stroke="#666666" stroke-width="0.263436"/>
<line x1="126.581" y1="5.75758e-09" x2="126.581" y2="548" stroke="#666666" stroke-width="0.263436"/>
<line x1="168.731" y1="5.75758e-09" x2="168.731" y2="548" stroke="#666666" stroke-width="0.263436"/>
<line x1="210.881" y1="5.75758e-09" x2="210.881" y2="548" stroke="#666666" stroke-width="0.263436"/>
<line x1="253.031" y1="5.75758e-09" x2="253.031" y2="548" stroke="#666666" stroke-width="0.263436"/>
<line x1="295.18" y1="5.75758e-09" x2="295.18" y2="548" stroke="#666666" stroke-width="0.263436"/>
<line x1="337.33" y1="5.75758e-09" x2="337.33" y2="548" stroke="#666666" stroke-width="0.263436"/>
<line x1="379.48" y1="5.75758e-09" x2="379.48" y2="548" stroke="#666666" stroke-width="0.263436"/>
<line x1="421.63" y1="5.75758e-09" x2="421.63" y2="548" stroke="#666666" stroke-width="0.263436"/>
<line x1="463.78" y1="5.75758e-09" x2="463.78" y2="548" stroke="#666666" stroke-width="0.263436"/>
<line x1="505.929" y1="5.75758e-09" x2="505.929" y2="548" stroke="#666666" stroke-width="0.263436"/>
<line x1="548.079" y1="5.75758e-09" x2="548.079" y2="548" stroke="#666666" stroke-width="0.263436"/>
<line x1="590.229" y1="5.75758e-09" x2="590.229" y2="548" stroke="#666666" stroke-width="0.263436"/>
<line x1="632.379" y1="5.75758e-09" x2="632.379" y2="548" stroke="#666666" stroke-width="0.263436"/>
<line x1="674.528" y1="5.75758e-09" x2="674.528" y2="548" stroke="#666666" stroke-width="0.263436"/>
<line x1="716.678" y1="5.75758e-09" x2="716.678" y2="548" stroke="#666666" stroke-width="0.263436"/>
<line x1="758.828" y1="5.75758e-09" x2="758.828" y2="548" stroke="#666666" stroke-width="0.263436"/>
<line x1="800.978" y1="5.75758e-09" x2="800.978" y2="548" stroke="#666666" stroke-width="0.263436"/>
<line x1="843.128" y1="5.75758e-09" x2="843.128" y2="548" stroke="#666666" stroke-width="0.263436"/>
<line x1="885.277" y1="5.75758e-09" x2="885.277" y2="548" stroke="#666666" stroke-width="0.263436"/>
<line x1="927.427" y1="5.75758e-09" x2="927.427" y2="548" stroke="#666666" stroke-width="0.263436"/>
<line x1="969.577" y1="5.75758e-09" x2="969.577" y2="548" stroke="#666666" stroke-width="0.263436"/>
<line x1="1011.73" y1="5.75758e-09" x2="1011.73" y2="548" stroke="#666666" stroke-width="0.263436"/>
<line x1="1053.88" y1="-5.75758e-09" x2="1053.88" y2="548" stroke="#666666" stroke-width="0.263436"/>
<line y1="-0.105351" x2="547.947" y2="-0.105351" stroke="#666666" stroke-width="0.263436"/>
<line y1="42.0446" x2="1054" y2="42.0446" stroke="#666666" stroke-width="0.263436"/>
<line y1="84.1945" x2="1054" y2="84.1945" stroke="#666666" stroke-width="0.263436"/>
<line y1="126.344" x2="1054" y2="126.344" stroke="#666666" stroke-width="0.263436"/>
<line y1="168.494" x2="1054" y2="168.494" stroke="#666666" stroke-width="0.263436"/>
<line y1="210.644" x2="1054" y2="210.644" stroke="#666666" stroke-width="0.263436"/>
<line y1="252.793" x2="1054" y2="252.793" stroke="#666666" stroke-width="0.263436"/>
<line y1="294.943" x2="1054" y2="294.943" stroke="#666666" stroke-width="0.263436"/>
<line y1="337.093" x2="1054" y2="337.093" stroke="#666666" stroke-width="0.263436"/>
<line y1="379.243" x2="1054" y2="379.243" stroke="#666666" stroke-width="0.263436"/>
<line y1="421.393" x2="1054" y2="421.393" stroke="#666666" stroke-width="0.263436"/>
<line y1="463.542" x2="1054" y2="463.542" stroke="#666666" stroke-width="0.263436"/>
<line y1="505.692" x2="1054" y2="505.692" stroke="#666666" stroke-width="0.263436"/>
<line y1="547.842" x2="547.947" y2="547.842" stroke="#666666" stroke-width="0.263436"/>
</g>
<rect x="0.131718" y="0.131718" width="1053.48" height="547.737" stroke="#666666" stroke-width="0.263436"/>
<defs>
<clipPath id="clip0_1_2766">
<rect width="1053.75" height="548" fill="white"/>
</clipPath>
</defs>
</svg>
