<svg width="69" height="56" viewBox="0 0 69 56" fill="none" xmlns="http://www.w3.org/2000/svg">
<path d="M0.123 55.927V41.64H4.99C7.816 41.64 10.0663 41.2213 11.741 40.384C13.5203 39.5467 14.8287 38.0813 15.666 35.988C16.5033 33.79 16.922 30.807 16.922 27.039V15.578L21.632 25.312C20.8993 25.94 19.8527 26.4633 18.492 26.882C17.1313 27.196 15.6137 27.353 13.939 27.353C10.2757 27.353 7.188 26.254 4.676 24.056C2.164 21.7533 0.908001 18.561 0.908001 14.479C0.908001 10.6063 2.11167 7.36166 4.519 4.74499C6.92633 2.02366 10.3803 0.662991 14.881 0.662991C17.8117 0.662991 20.4807 1.34333 22.888 2.70399C25.4 4.06466 27.3887 6.36733 28.854 9.612C30.424 12.8567 31.209 17.2527 31.209 22.8V25.155C31.209 32.5863 30.11 38.5523 27.912 43.053C25.8187 47.5537 22.731 50.8507 18.649 52.944C14.567 54.9327 9.543 55.927 3.577 55.927H0.123ZM37.018 55.927V41.64H41.885C44.711 41.64 46.9613 41.2213 48.636 40.384C50.4153 39.5467 51.7237 38.0813 52.561 35.988C53.3983 33.79 53.817 30.807 53.817 27.039V15.578L58.527 25.312C57.7943 25.94 56.7477 26.4633 55.387 26.882C54.0263 27.196 52.5087 27.353 50.834 27.353C47.1707 27.353 44.083 26.254 41.571 24.056C39.059 21.7533 37.803 18.561 37.803 14.479C37.803 10.6063 39.0067 7.36166 41.414 4.74499C43.8213 2.02366 47.2753 0.662991 51.776 0.662991C54.7067 0.662991 57.3757 1.34333 59.783 2.70399C62.295 4.06466 64.2837 6.36733 65.749 9.612C67.319 12.8567 68.104 17.2527 68.104 22.8V25.155C68.104 32.5863 67.005 38.5523 64.807 43.053C62.7137 47.5537 59.626 50.8507 55.544 52.944C51.462 54.9327 46.438 55.927 40.472 55.927H37.018Z" fill="#F0B428"/>
</svg>
