<svg width="32" height="40" viewBox="0 0 32 40" fill="none" xmlns="http://www.w3.org/2000/svg">
<path d="M0.890213 36.7176L8.36924 26.7169C8.4579 26.5983 8.46031 26.4378 8.37954 26.3137C7.71424 25.2919 7.71386 23.9231 8.4809 22.8842C9.46793 21.5473 11.3518 21.2637 12.6886 22.2507C14.0254 23.2378 14.309 25.1217 13.322 26.4584C12.6027 27.4327 11.4071 27.8477 10.2938 27.6187C10.1586 27.5909 10.0197 27.6447 9.93836 27.7562L2.52609 37.9253C2.46779 38.0053 2.44679 38.0914 2.44385 38.1765H2.43436V38.925C2.43436 39.3385 2.76947 39.6736 3.18295 39.6736H27.6621C28.0755 39.6736 28.4107 39.3385 28.4107 38.925C28.4107 38.5116 28.0755 38.1765 27.6621 38.1765H4.28458L23.4164 30.0062C23.9937 29.7598 24.297 29.1522 24.1794 28.5C23.3342 23.7987 24.9909 18.1515 28.0937 13.1647C28.4623 12.5724 28.2377 11.7308 27.5841 11.2478L25.6221 9.79945L23.9352 8.55366L22.6574 7.61062L19.0088 4.91647L18.9298 4.85803L18.928 4.86044C18.2847 4.43693 17.4657 4.48814 17.027 4.99322C13.1743 9.42683 8.26523 12.6725 3.52318 13.2483C2.86538 13.3284 2.37409 13.7969 2.30857 14.4212L0.00286448 36.3445C-0.0483525 36.8319 0.600482 37.1042 0.889996 36.7172L0.890213 36.7176Z" fill="white"/>
<path d="M19.7424 2.49599L29.5828 9.8172C29.7876 9.96951 30.0205 10.0568 30.2571 10.0828C30.7295 10.1347 31.2163 9.9417 31.5205 9.53278C31.977 8.91911 31.8497 8.05163 31.2361 7.59509L21.3956 0.273876C20.7819 -0.182664 19.9144 -0.0553563 19.4579 0.558309C19.0014 1.17198 19.1287 2.0396 19.7423 2.496L19.7424 2.49599Z" fill="white"/>
</svg>
