<svg width="52" height="38" viewBox="0 0 52 38" fill="none" xmlns="http://www.w3.org/2000/svg">
<path d="M38.8873 23.7665C36.273 23.7665 33.9856 21.9708 33.4409 19.4886L30.6633 6.23232L12.5813 6.23215L11.4376 1.74295C11.1653 0.686671 10.1848 0 9.09553 0L2.39646 0.000171921C1.08928 0.000171921 0 1.05645 0 2.32403C0 3.59162 1.08928 4.6479 2.39646 4.6479H7.18929L13.1259 27.6748C13.3982 28.7311 14.3786 29.4178 15.4679 29.4178L40.0312 29.4176C41.1749 29.4176 42.1009 28.6782 42.3732 27.6219L43.0267 24.9812L41.6107 23.0799C40.7937 23.5025 39.8133 23.7666 38.8875 23.7666L38.8873 23.7665Z" fill="white"/>
<path d="M23.0383 33.4848C23.0383 35.7598 21.1363 37.6042 18.79 37.6042C16.4437 37.6042 14.5417 35.7599 14.5417 33.4848C14.5417 31.2096 16.4437 29.3652 18.79 29.3652C21.1363 29.3652 23.0383 31.2096 23.0383 33.4848Z" fill="white"/>
<path d="M39.8133 33.4848C39.8133 35.7598 37.9113 37.6042 35.5652 37.6042C33.2189 37.6042 31.3169 35.7599 31.3169 33.4848C31.3169 31.2096 33.2189 29.3652 35.5652 29.3652C37.9113 29.3652 39.8133 31.2096 39.8133 33.4848Z" fill="white"/>
<path d="M51.523 17.8509L46.8391 11.5661L49.7257 10.4043C50.9239 9.92888 51.0329 8.34446 49.8892 7.76355L36.6 0.4224C35.4563 -0.21128 34.0947 0.739249 34.367 2.00682L37.417 16.5835C37.6893 17.7983 39.2688 18.2207 40.0857 17.2702L42.1008 14.9463L46.7847 21.2312C47.1659 21.7065 47.874 21.8121 48.3642 21.4952L51.3053 19.4355C51.7955 19.0658 51.9046 18.3264 51.5232 17.851L51.523 17.8509Z" fill="white"/>
</svg>
