<svg width="39" height="38" viewBox="0 0 39 38" fill="none" xmlns="http://www.w3.org/2000/svg">
<path fill-rule="evenodd" clip-rule="evenodd" d="M33.5134 34.4072C25.7833 39.1976 13.2049 39.1976 5.47437 34.4072C2.85024 32.7809 1.08228 30.7539 0.36304 28.5915C1.37572 29.7198 2.63195 30.7599 4.11082 31.6761C8.35185 34.3037 13.9227 35.6176 19.4937 35.6176C25.0646 35.6176 30.6355 34.3033 34.8765 31.6761C36.3554 30.7594 37.6116 29.7198 38.6247 28.5915C37.9056 30.7533 36.1383 32.781 33.513 34.4072H33.5134ZM5.48113 3.59266C9.34563 1.19748 14.4235 0 19.5003 0C24.577 0 29.6545 1.19729 33.5198 3.59266C38.2418 6.51842 40.0628 10.5714 38.3921 14.4344C37.5579 16.362 35.8734 18.1517 33.5198 19.61C25.7897 24.4005 13.2113 24.4005 5.48151 19.61C3.13613 18.1569 1.4543 16.3741 0.617442 14.4547C-1.06972 10.5861 0.749111 6.52511 5.48151 3.59266H5.48113ZM0.355149 18.7043C1.06883 20.8745 2.84028 22.9104 5.47512 24.5425C13.2052 29.3322 25.7833 29.3322 33.5134 24.5425C36.138 22.9163 37.9062 20.8897 38.6255 18.7276C37.6089 19.8574 36.3557 20.8982 34.8832 21.8107C30.6426 24.4383 25.0706 25.753 19.5004 25.753C13.9288 25.753 8.35861 24.4387 4.11758 21.8107C2.63443 20.8922 1.37456 19.843 0.354923 18.7042L0.355149 18.7043ZM4.11071 26.7429C2.63093 25.8259 1.37471 24.7849 0.361011 23.656C1.07923 25.8192 2.84806 27.8474 5.47422 29.4743C13.2043 34.2643 25.7824 34.2643 33.5125 29.4743C36.139 27.8471 37.9076 25.8191 38.6261 23.656C37.6134 24.7853 36.3567 25.8261 34.8764 26.7429C30.6353 29.3705 25.0644 30.6851 19.4935 30.6851C13.9226 30.6851 8.35136 29.3706 4.11071 26.7429ZM16.5027 11.2532L12.1377 13.7736L15.9195 15.9575C17.179 16.685 19.6061 16.5581 21.1131 15.6887C21.8535 15.2612 22.0491 14.848 22.0491 14.6897C22.0491 14.5457 21.8686 14.3524 21.5787 14.1849L16.5027 11.2532ZM23.4561 7.23802L19.0907 9.75842L22.8725 11.9419L22.873 11.9424C24.1324 12.6695 26.5591 12.5438 28.0666 11.6732C28.807 11.2457 29.0025 10.8329 29.0025 10.6742C29.0025 10.5306 28.8225 10.3373 28.5326 10.1693L23.4561 7.23802ZM6.40295 13.4513L6.96015 13.7729L6.95971 13.7734L8.76112 14.8128L7.24493 15.6881C6.62565 16.0457 6.41352 16.8371 6.77096 17.456C7.12854 18.0753 7.91986 18.2875 8.53873 17.9296L11.19 16.399C11.242 16.3691 11.2907 16.336 11.3373 16.3005L12.385 16.9056L10.8689 17.7809C10.2496 18.1385 10.0379 18.9299 10.3953 19.5488C10.635 19.9638 11.0698 20.1963 11.5176 20.1963C11.7371 20.1963 11.9598 20.1402 12.1636 20.0228L14.8149 18.4918C14.872 18.4591 14.9253 18.4224 14.9755 18.3823C17.0489 19.3657 20.2217 19.1913 22.4065 17.9294C23.7087 17.1779 24.5006 16.1191 24.6211 14.9889C26.2459 15.0639 27.9962 14.7017 29.3604 13.9139C30.7777 13.0957 31.5907 11.9144 31.5907 10.6728C31.5907 10.1068 31.4196 9.56649 31.1012 9.08794L32.5963 8.22459C33.2155 7.86698 33.4272 7.07514 33.0698 6.45667C32.7122 5.83733 31.9214 5.62564 31.302 5.98307L28.9366 7.34891C28.9182 7.35948 28.9006 7.37005 28.8837 7.38106L27.8461 6.78199L28.9721 6.1318C29.5914 5.77419 29.8035 4.98325 29.4461 4.36433C29.0885 3.74499 28.2976 3.53285 27.6783 3.89032L25.3128 5.25616C25.2945 5.26629 25.2768 5.2773 25.2594 5.28831L24.1068 4.62287C24.1059 4.62242 24.1055 4.62198 24.1044 4.62154L21.6054 3.17892C20.987 2.82132 20.195 3.033 19.8376 3.65252C19.48 4.27185 19.6927 5.06387 20.312 5.42044L20.8688 5.74208L17.6672 7.59061C17.6659 7.59149 17.6648 7.59193 17.6631 7.59296L15.8566 8.63613C15.8561 8.63657 15.8557 8.63657 15.8552 8.63701L9.55082 12.2775L7.69925 11.2085C7.08039 10.8505 6.28934 11.0636 5.93148 11.6821C5.57127 12.3024 5.78337 13.0942 6.40267 13.4514L6.40295 13.4513Z" fill="white"/>
</svg>
